<svg xmlns="http://www.w3.org/2000/svg" viewBox="5.59 5.59 13.81 13.81"><defs><style>.cls-1{fill:#3261bc;}.cls-2{fill:#2c54a5;}.cls-3{fill:#fff;}.cls-4{fill:none;}</style></defs><title></title><g data-name="Layer 2" id="Layer_2"><g data-name="Layer 1 copy" id="Layer_1_copy"><g id="Trello"><rect class="cls-1" height="13.81" rx="2" ry="2" width="13.81" x="5.59" y="5.59"></rect><path class="cls-2" d="M17.41,6.19a1.4,1.4,0,0,1,1.4,1.4v9.81a1.4,1.4,0,0,1-1.4,1.4H7.59a1.4,1.4,0,0,1-1.4-1.4V7.59a1.4,1.4,0,0,1,1.4-1.4h9.81m0-.6H7.59a2,2,0,0,0-2,2v9.81a2,2,0,0,0,2,2h9.81a2,2,0,0,0,2-2V7.59a2,2,0,0,0-2-2Z"></path><rect class="cls-3" height="9.15" rx="0.93" ry="0.93" width="4.27" x="7.55" y="7.54"></rect><rect class="cls-3" height="5.67" rx="0.93" ry="0.93" width="4.27" x="13.18" y="7.54"></rect></g><rect class="cls-4" height="25" width="25"></rect></g></g></svg>